<svg xmlns="http://www.w3.org/2000/svg" viewBox="0 0 384.25 388.04"><defs><style>.cls-1{fill:#27aae1;}.cls-2{fill:#457bbf;opacity:0.26;}.cls-3,.cls-4{fill:#fff;}.cls-4{stroke:#fff;stroke-miterlimit:10;}</style></defs><g id="Gradient"><path class="cls-1" d="M392.13,138.69,145.76,387.49a22,22,0,0,1-31.25,0L14.35,286.34a22.45,22.45,0,0,1,0-31.56L260.71,6Z" transform="translate(-7.87 -5.98)"/><path class="cls-1" d="M375.69,19.46,260.71,6,392.13,138.69,378.77,22.55A3.52,3.52,0,0,0,375.69,19.46Z" transform="translate(-7.87 -5.98)"/><polygon class="cls-2" points="0.01 263.92 0.46 260.04 2.19 254.93 3.72 252.18 252.84 0 364.48 13.09 367.29 14.02 369.07 15.34 370.25 16.53 371.29 19.97 371.69 23.43 384.25 132.71 0.01 263.92"/><ellipse class="cls-3" cx="306.02" cy="92.94" rx="28.98" ry="31.36" transform="translate(7.16 219.67) rotate(-41.41)"/><line class="cls-4" x1="126.68" y1="332.37" x2="255.54" y2="202.24"/><line class="cls-4" x1="92.09" y1="297.43" x2="220.95" y2="167.3"/><line class="cls-4" x1="57.49" y1="262.5" x2="186.35" y2="132.36"/></g></svg>